<svg width="25" height="21" viewBox="0 0 25 21" fill="none" xmlns="http://www.w3.org/2000/svg">
<path d="M24.0512 18.9768H23.0198V17.2854C23.1023 17.2854 23.1436 17.3267 23.2261 17.3267C23.4736 17.3267 23.7624 17.2029 23.9274 16.9966C24.2574 16.5841 24.2162 16.0065 23.8036 15.6765L19.9257 12.4174C19.5957 12.1287 19.1007 12.1287 18.7294 12.4174L14.8102 15.6765C14.3977 16.0065 14.3564 16.5841 14.6865 16.9966C14.934 17.2854 15.264 17.3679 15.5941 17.2854V18.9768H9.40594V17.2854C9.48845 17.2854 9.5297 17.3267 9.61221 17.3267C9.85974 17.3267 10.1485 17.2029 10.3135 16.9966C10.6436 16.5841 10.6023 16.0065 10.1898 15.6765L6.27063 12.4174C5.94059 12.1287 5.44554 12.1287 5.07426 12.4174L1.15512 15.6765C0.742574 16.0065 0.70132 16.5841 1.03135 16.9966C1.27888 17.2854 1.60891 17.3679 1.93894 17.2854V18.9768H0.948845C0.453795 18.9768 0 19.3894 0 19.9257C0 20.462 0.412541 20.8745 0.948845 20.8745H24.0512C24.5462 20.8745 25 20.462 25 19.9257C25 19.3894 24.5462 18.9768 24.0512 18.9768ZM3.83663 18.9768V15.8828L5.69307 14.3564L7.5495 15.8828V18.9768H3.83663ZM17.4505 18.9768V15.8828L19.3069 14.3564L21.1634 15.8828V18.9768H17.4505Z" fill="#9CA29D"/>
<path d="M13.7376 7.34323H10.9324C10.4373 7.34323 9.98352 7.75578 9.98352 8.29208C9.98352 8.82838 10.3961 9.24092 10.9324 9.24092H12.6238V9.61221C12.6238 10.1073 13.0363 10.5611 13.5726 10.5611C14.1089 10.5611 14.5215 10.1485 14.5215 9.61221V9.15842C15.5116 8.86964 16.2541 7.92079 16.2541 6.84818C16.2541 5.4868 15.1403 4.41419 13.8202 4.41419H12.5C12.17 4.41419 11.9225 4.16667 11.9225 3.83663C11.9225 3.5066 12.17 3.25908 12.5 3.25908H15.3053C15.8004 3.25908 16.2541 2.84653 16.2541 2.31023C16.2541 1.77393 15.8416 1.36139 15.3053 1.36139H14.4802V0.948845C14.4802 0.453795 14.0677 0 13.5314 0C12.9951 0 12.5825 0.412541 12.5825 0.948845V1.32013H12.4175C11.0561 1.32013 9.98352 2.39274 9.98352 3.75413C9.98352 5.11551 11.0974 6.18812 12.4175 6.18812H13.7376C14.0677 6.18812 14.3152 6.43564 14.3152 6.76568C14.3152 7.09571 14.0264 7.34323 13.7376 7.34323Z" fill="#9CA29D"/>
</svg>
