<svg width="455" height="584" viewBox="0 0 455 584" fill="none" xmlns="http://www.w3.org/2000/svg">
<path opacity="0.12" d="M137.39 30.4261L137.596 26.558L135.323 25.8789L134.29 24.1663L135.323 21.125L136.357 20.121L135.884 17.9124L137.006 14.5256L139.751 15.5413L144.357 14.5256L147.161 16.5571L146.128 17.9124L151.973 19.2677L155.811 18.9281L157.907 16.2204L159.029 11.6496L161.095 9.44979L166.439 7.75786L169.833 8.43404L171.25 6.91043L173.406 7.4183L176.121 6.73917L179.133 7.07873L181.406 7.92617L187.989 4.37106L190.321 4.1998L193.716 2.16831L196.816 2L196.078 4.37106L193.716 6.40255L194.926 10.126L196.904 11.9862L199.355 12.4941L199.65 16.3888L202.189 17.5728L203.399 20.121L206.794 21.8041M137.39 30.4261L136.357 31.1053L131.928 30.2785L129.773 29.245V27.06L128.268 26.558L124.696 27.7391L122.836 31.2824L123.19 36.3612L126.408 37.3651V38.9005L124.991 41.6171L127.441 44.8356L126.851 45.8395L123.279 47.0206L123.013 44.9832L121.124 43.123L120.474 40.2588L118.201 39.4025L113.714 41.2627L111.647 41.1151V42.621L110.496 43.6545H106.57L105.064 42.7982L103.824 40.436L102.88 39.7568L102.142 33.6446L100.164 34.8553L98.658 33.1427L96.2078 33.999L95.4107 36.3612L96.1192 37.3651L96.4144 42.7982L94.9089 46.6958M137.39 30.4261L138.718 33.1427L140.401 33.3198L143.501 35.0029L143.796 37.2175L143.323 38.9005L141.257 39.4025L140.135 40.5836L141.906 42.119L142.467 46.0167L141.641 48.0541L141.434 51.9517L139.929 53.6348L138.039 58.7135L139.368 59.3926L140.224 61.932L139.929 63.9694L141.818 67.867L145.479 67.1879L146.128 65.4753L150.556 65.3276L151.796 65.8296M206.794 21.8041L209.982 22.9852L213.731 22.6604L216.565 23.1624M206.794 21.8041L203.871 24.8454L202.75 24.3435L198.144 26.2037L196.816 24.3435L194.1 22.808L191.561 29.245L185.804 30.7805L185.066 31.2824L185.243 32.3159L187.133 33.1427L185.922 37.3651L184.417 38.2214L186.1 41.2627L186.277 42.7982L188.816 43.8021L188.638 45.3375L190.528 46.5186L187.989 49.9143L184.771 51.2726L181.671 51.5974L180.845 55.3178V57.5324L178.011 57.8572L177.155 56.4989L174.262 56.3513L170.69 58.0344L169.538 60.9281L168.062 60.2489L166.822 61.2529L164.106 66.8336L163.811 69.5501L161.922 72.4438L157.523 71.9123L154.984 73.4477L152.829 71.5875L153.744 68.369L151.796 65.8296M216.565 23.1624L219.488 24.5206L227.577 24.6683L230.293 25.1998L233.304 26.7057L238.293 25.8789L241.954 25.7017L248.714 27.562L249.747 27.3848L249.393 30.1013L248.448 31.2824L246.382 31.4596L244.197 34.3238L240.625 36.7155L238.765 39.5797L240.448 43.6545L240.92 42.621L244.02 43.123L245.909 44.4812H248.537L247.887 47.3749L244.315 50.5934L242.987 53.6348L244.669 55.495L248.064 54.4911L248.537 55.3178L247.031 60.5737L247.887 63.4674L250.426 63.9694L254.825 66.1544L257.836 70.7312L259.253 71.5875L257.747 73.9497H252.758L253.526 72.7686H255.504L253.614 70.9084L254.175 69.9044L250.131 65.4753L247.681 64.4714L246.736 64.1465L245.909 65.8296L246.854 67.0107L242.603 70.0521H240.832L242.603 68.6938L242.337 67.867L236.404 66.6859L235.193 65.6525L233.009 66.8336L231.326 66.3316L231.798 67.867L229.909 69.0481L230.765 70.2292L232.832 69.3729L231.149 72.0895M216.565 23.1624L217.126 28.4183L213.849 29.4222L213.17 32.1387L210.159 32.6407L208.477 35.3572L206.41 39.0777L204.255 40.436L203.015 42.4438L204.727 44.3336L207.443 45.3375L208.654 47.5226L209.126 50.0619L207.06 51.7745L206.587 53.6348L207.443 57.3552L210.366 59.3926L212.049 63.6151L214.41 63.7922L215.916 65.3276L216.743 65.1505L219.96 62.434L221.171 63.9694L222.676 62.7883L223.532 63.7922H225.599L226.248 62.7883L227.282 63.6151L228.226 66.8336L231.149 72.0895M151.796 65.8296L149.7 69.9044L145.006 77.3453L145.301 82.926L145.006 85.4654L145.862 86.8237L147.161 86.6465L147.84 89.363L146.984 91.7252L149.257 93.0835L150.29 92.2272L152.623 94.4418L157.7 97.8079L157.995 99.2843L159.855 100.141L160.889 102.591L163.634 101.381L165.523 102.208L165.14 104.274L167.856 104.363V105.603L173.228 109.648M231.149 72.0895L229.82 72.9457L225.687 73.6249L220.137 77.5225L214.41 80.7115L207.443 84.1071L208.772 80.8886L212.521 79.0284L210.455 76.991L208.299 79.2056L205.082 80.7115L202.543 82.926L201.716 85.4654L202.189 86.3217L200.476 90.7213L198.617 90.5441L198.498 91.5481L199.355 93.0835L200.299 92.4044L200.86 91.4004L201.155 95.2981L202.189 96.302L203.694 94.7666L204.727 97.8079L205.288 100.997L204.521 102.03L206.794 102.68L211.015 106.902L212.905 107.286L211.488 111.893L209.982 114.904L209.126 113.221L209.51 110.859L208.477 111.332L208.093 116.322M77.639 52.9556L80.5321 53.8119L81.3587 54.993L78.997 59.2155L82.5395 60.9281L84.0746 64.1465L83.8975 66.8336L87.1153 67.3651L89.1522 64.2942L88.9751 62.6111L87.4695 61.932L86.4363 59.747L87.6171 58.7135L87.1153 56.3513L89.1522 55.3178L89.6541 52.4537L92.8719 49.7371L94.9089 46.6958M77.639 52.9556L75.7792 53.4576L73.2404 52.0993L70.0226 47.8769L67.159 45.6623V43.123L67.838 39.0777V36.3612L66.3029 35.5049L63.4393 36.5383L62.5832 39.2549L60.7234 40.436L59.0407 42.621L56.1476 43.8021L54.9668 45.5147L56.8266 48.3789L56.1476 51.7745L52.9298 54.1367L52.6051 56.6761L51.749 58.2115L48.5312 58.8907L46.8485 61.0757M77.639 52.9556L77.3143 57.68L72.9156 62.434L73.0632 67.0107L71.8824 68.369L74.7755 73.9497L75.7792 74.806L75.4544 76.991L76.4582 78.0245L76.7829 80.5638L77.1371 82.2469L79.1741 83.7823L81.2111 88.0048L77.8161 89.6878L78.4951 90.7213L76.6353 93.2607L75.1002 92.5815L74.0965 90.7213L71.0558 90.2193L69.8454 92.7587L69.5207 93.9398L71.5577 98.6347L71.3805 100.141L75.4544 107.109H78.997L81.8605 105.426L82.7166 105.78L82.8938 108.526L85.6097 109.442L86.1116 111.154L88.9751 114.255L88.8275 116.144L90.5102 117.65H92.0158L94.407 122.522L94.2299 124.412M94.9089 46.6958L98.658 46.5186M46.8485 61.0757L46.3466 62.2863L41.4461 61.6072L39.7339 59.5698L36.1914 58.7135L34.8334 60.0718L29.7558 62.434L27.2169 62.1092L23.4973 63.6151L21.295 63.7922L19.4322 62.9359L17.9089 61.2529L16.0461 63.9694L13.8468 65.1505L10.1242 66.0068L9.44523 67.5127L9.78472 71.4103L11.308 73.2706L15.5384 75.4851L15.2018 78.1721L16.0461 81.9221L19.2639 84.2843M46.8485 61.0757L47.2027 62.1092L47.3503 67.867L47.8522 70.4064L49.033 71.5875L49.2102 75.6328L47.7046 78.0245L43.1288 79.8847H40.4129L36.0142 78.3493L33.1507 79.2056L30.2576 81.5678L24.1763 83.428L21.8146 83.1032L21.295 82.0697L19.2639 84.2843M94.2299 124.412H95.765L96.1192 122.729L98.0971 123.763V120.544L99.7798 117.178L99.6027 114.904L97.92 113.605L98.0971 112.188L102.142 103.448H105.241L106.274 104.097L106.363 101.735L108.046 102.68L109.758 102.03L109.669 103.536L111.352 104.57L113.891 104.274V102.887L116.902 104.57L116.518 103.448H119.057L118.408 101.558L119.618 102.887L122.157 101.735L123.279 102.68L125.168 106.253L129.124 105.78L130.629 106.253L135.146 108.792H137.39L138.512 111.154L140.578 111.981L142.763 112.188L145.213 110.859L146.896 108.526H148.873L149.907 110.505L154.305 111.981L158.173 109.826L161.272 109.442L164.106 110.859L167.295 110.032L168.977 109.353L173.228 109.648M94.2299 124.412L94.407 127.808M19.2639 84.2843L19.94 85.7902L22.1393 87.1485L19.7717 91.4004L20.1083 94.6189L18.0772 96.7744L17.4012 96.0953L14.8624 96.9516L13.1708 99.0185H11.984L10.632 100.908L6.90641 99.2843L4.37055 100.347L2 102.03L4.03105 105.78L6.23038 106.637V110.859L7.92194 113.044L11.1397 114.727L13.5073 114.432L16.0461 116.617L15.7096 118.005L17.0617 122.05L17.5694 123.379L15.0306 123.083L13.5073 124.235L13.6786 126.302L11.8158 128.841L9.95299 130.141L9.61645 132.414L12.3235 135.78L10.8002 136.725L10.4608 138.999L12.3235 142.572L14.8624 145.761L16.2174 145.583L20.2795 147.444L23.9991 149.983L28.752 151.873L38.7302 149.333L38.2283 151.016L39.7339 153.644M173.228 109.648L178.011 110.505L181.199 111.981L184.417 109.826L186.66 107.759L189.199 107.493L193.421 107.286L196.904 107.759L198.617 109.442L201.893 109.826L203.576 109.353L204.432 112.837L206.233 114.078L208.093 116.322M208.093 116.322L204.432 113.871L203.015 120.633L204.048 124.796L204.727 125.918L204.905 131.853L206.41 138.142L208.949 144.52L210.366 146.233L211.872 147.65L212.698 148.95L216.093 151.489L218.248 154.235L221.348 156.39L223.06 156.952M39.7339 153.644L41.5937 153.379L42.2727 151.016L44.1325 151.873L50.5681 152.729L51.07 152.345L50.391 151.312L52.428 150.455L53.7859 149.156V142.837L55.9705 140.859L57.3285 138.142L58.5093 137.286L58.1846 134.954L60.2215 131.646L60.5463 132.03L60.7234 132.414L64.0888 134.392L66.1258 132.68H71.5577L72.7385 130.997L73.2404 129.107L77.3143 129.668L78.8199 133.536L80.8568 130.524L83.8975 129.875L82.7166 126.479L84.3993 124.412H85.6097L88.6504 126.952L90.3331 127.601L92.37 129.491L94.407 127.808M39.7339 153.644L37.5493 158.457L34.8334 160.997L31.9698 164.835L32.7964 168.615H39.7339L43.1288 167.198L49.3873 165.692L53.4317 163.536L55.6458 161.469L57.0037 160.613L56.5019 159.314L58.8636 156.184L59.5426 153.379L62.4061 150.455L65.801 148.772L65.9782 147.06L67.838 143.221L71.5577 140.682L73.7422 139.442L77.3143 137.286L80.8568 137.109L81.5358 137.965H84.3993L87.1153 139.176L91.8682 140.298L92.37 142.188L94.7317 143.221L95.4107 140.859L100.341 143.871L100.636 144.904L102.88 146.617L104.592 146.233L105.507 147.739L107.78 148.95L109.463 151.105L111.352 151.489L115.013 154.501L116.695 155.268L117.552 152.995L121.773 156.184L124.312 155.918M223.06 156.952L224.743 157.04L230.116 160.347L238.765 167.198L241.658 169.471L247.208 172.66L249.954 173.694L250.987 172.453L253.526 174.993L255.297 175.849L256.537 180.072L260.758 189.107L262.648 193.625L264.508 197.198L265.364 200.121L266.013 203.133L267.725 208.388M223.06 156.952L222.292 161.469L220.521 163.329L218.809 163.536L217.215 161.174L215.709 162.03L215.237 160.436L213.17 159.491M94.407 127.808L97.8905 128.162L99.6027 129.314L101.492 128.635L104.68 130.79L104.857 132.887L103.175 135.042L102.88 137.493L104.208 137.965L105.241 137.109H108.636L110.496 138.142L111.824 140.505M111.824 140.505L113.891 139.176L117.079 134.57L120.651 134.954L122.629 135.869V137.965L125.729 140.682L127.913 141.154M111.824 140.505L114.186 143.221L117.758 145.761L118.408 149.156L119.825 148.772L119.618 150.19L122.452 150.839L123.013 152.522L125.375 153.556L124.312 155.918M127.913 141.154L130.246 142.365M127.913 141.154L129.124 141.981L130.246 142.365M124.312 155.918L127.057 157.424L128.356 159.491L130.895 162.296L132.784 167.375L132.991 167.759L134.201 179.245L135.146 183.644L136.74 184.973L139.545 188.723L142.674 194.835L143.796 200.77L143.589 204.166L142.763 206.971L141.434 208.684L142.94 211.961L143.796 210.751L147.161 210.278L149.907 211.105L152.623 213.29L152.062 216.302L150.94 217.896L156.844 219.668L160.534 222.414L161.272 224.481L163.9 226.164L165.966 229.825L166.999 229.56L168.151 231.538V233.605L167.295 235.672L165.523 235.465L164.756 237.65L168.151 239.333L169.184 236.617L174.439 237.178L178.188 238.684M130.246 142.365L132.312 144.727L135.707 144.343L137.596 146.233L140.135 146.883L140.578 148.772L143.796 151.873L145.213 151.696L146.718 150.19L148.667 149.806L152.623 152.139L156.49 154.412L158.734 151.312L161.095 152.995L166.439 152.345L168.505 151.489L166.645 150.662V149.599L169.745 148.95L173.228 145.761L174.823 145.938L177.155 148.95L178.188 149.156L179.9 148.477L181.406 149.422L180.55 150.662L182.232 151.105L185.243 150.278L186.277 150.839L185.45 153.379L182.911 157.424L184.21 158.723L185.45 162.975L189.022 165.514L193.067 166.548L194.926 168.054L198.498 168.792L199.65 168.615L202.366 169.087L206.41 167.759M206.41 167.759L208.654 162.68L211.015 161.263M206.41 167.759L209.126 169.914L207.916 172.011L207.266 169.914L206.233 171.804L203.399 173.694L203.694 175.583M178.188 238.684L179.9 235.672L183.561 234.904L183.738 232.926L182.232 231.538L182.911 228.999L185.922 228.32L190.144 224.481L190.055 222.119L190.705 220.052L188.461 217.129L190.705 216.302L193.539 214.323M178.188 238.684L181.406 239.894L185.922 243.29L189.199 249.195L189.672 250.701L192.683 255.219L195.96 254.953L204.905 261.538L207.266 265.288L207.62 268.123L208.654 269.628L212.521 271.223L216.565 274.707L220.521 278.93L224.005 283.536L224.743 282.68L229.437 284.747H231.975L233.865 285.603L237.26 288.792L240.064 293.812H241.776L242.603 292.63L245.909 290.859L250.426 289.973L260.109 293.812L259.548 292.335L260.758 291.449L264.98 291.154L266.486 292.04M213.17 159.491L212.993 156.774L210.838 157.601L209.598 159.757L211.015 161.263M213.17 159.491L212.521 161.174L211.015 161.263M267.725 208.388L269.585 213.467L271.947 218.369L274.958 223.064L277.881 226.341L280.685 229.353L282.102 230.386L287.091 233.782L288.863 236.321L294.176 240.751L299.195 242.434L300.081 243.556L301.261 247.335L302.147 247.601M267.725 208.388L260.758 210.928L259.725 213.083L255.504 214.117L254.175 213.762L252.758 217.129L251.253 217.985L250.78 219.402L247.415 220.229M203.694 175.583L206.794 176.705L208.949 175.2V177.739L208.093 178.95L210.366 179.894L212.137 179.038L215.06 180.278L218.809 184.324L221.82 184.028L224.182 182.434L224.005 186.656L225.687 189.196L226.071 191.646L228.226 195.131L227.931 198.881L230.116 200.948L230.293 204.993L231.149 207.178L233.215 209.038L236.226 209.245L239.592 212.434L240.064 213.762L242.81 212.434L244.197 214.589L243.843 216.302L242.337 216.863L241.954 218.162M203.694 175.583L201.51 179.894L200.004 180.928L201.155 182.818L197.938 185.829L199.355 186.007L199.65 187.896L201.716 188.723L201.893 191.469L203.871 190.436L204.727 191.942L200.299 194.274L197.76 194.481L197.465 196.725L195.399 198.054L194.277 200.77L194.749 203.605L196.432 204.432L195.133 210.367L195.783 212.05L195.133 213.29L193.539 214.323M241.954 218.162L244.669 217.512L247.415 220.229M241.954 218.162L241.776 220.229L240.625 222.768L237.26 223.92L235.754 223.625L234.721 224.747L231.503 224.953L230.765 227.197L227.104 229.176L224.831 231.243L225.215 233.132L223.06 233.605L220.994 232.749L220.521 235.76L218.071 237.65L215.709 236.794L214.587 236.499L215.237 235.111L212.905 233.132L208.654 230.859L208.299 228.054L207.266 227.197L206.794 224.097L203.694 222.768L199.355 224.481L195.399 221.381L196.816 218.546L195.222 217.335L193.539 214.323M247.415 220.229L249.275 222.207L249.098 224.481L247.681 225.78L241.954 225.514L240.271 228.054L241.481 230.859L240.448 233.605L242.337 234.904L241.776 238.005L243.164 238.684L244.197 240.839L247.887 244.796L249.57 245.062L247.592 246.302L247.415 247.808L245.053 248.369L239.799 246.479L237.437 249.491L236.699 249.875L237.525 253.536L240.064 253.92L247.208 257.493H247.681L250.603 259.471L250.219 263.044H252.109L255.858 264.55L256.891 265.76H258.692L261.231 263.605L263.77 264.254L264.98 266.144H266.869L270.737 267.443L272.803 269.156M302.147 247.601L306.575 249.668L311.003 250.347L312.775 252.03L316.908 253.92M302.147 247.601L301.557 250.908L299.195 253.713L298.309 255.603L293.881 262.837L292.996 263.398L291.815 264.077L290.634 260.504L287.977 258.792L287.682 259.353L284.73 257.286L282.958 258.999L279.829 262.188L281.541 264.432L278.353 266.971L277.025 266.794L274.663 268.949L272.803 269.156M266.486 292.04L268.759 291.154L270.914 288.497L271.091 287.02L270.264 282.68L273.925 279.963M266.486 292.04L270.737 296.469L273.275 300.603L273.63 302.67L275.519 303.556L277.29 306.508L278.914 309.461V313.595L280.597 313.89L280.892 311.528L285.113 313.004L285.763 311.528L288.567 310.937L291.519 313.595L295.652 315.957V317.434L294.472 318.024L292.405 320.977L290.634 321.567V323.634L295.948 321.272L298.605 321.567L301.261 319.796L303.623 319.5L306.575 317.729L308.642 318.91L311.889 322.748L316.908 331.311V333.083L314.251 334.559L313.956 339.284L317.498 340.76L318.974 342.237H322.517L326.65 345.485L328.716 348.142L331.373 350.209L334.03 350.504L338.458 345.78H341.41L342.886 346.961M316.908 253.92L321.926 253.713L328.126 254.392L334.325 252.886L340.525 252.68L349.971 250.908L354.104 251.735L355.58 253.713L356.761 257.965L355.285 260.209L353.809 260.859L350.857 264.077L347.314 266.233L346.134 269.628L347.314 273.201L349.676 275.534L351.743 276.567L362.665 280.819L369.16 283.536L372.407 284.747L374.474 285.839L383.625 288.201L385.692 289.087L392.482 290.563L398.386 293.221L401.338 294.993L404.29 298.241L406.061 298.831L409.604 301.784L412.556 302.67L415.803 303.26L420.232 304.737L424.365 307.099L428.497 307.985L428.793 309.166L430.859 308.871L432.335 310.937V313.3L434.992 315.071L440.601 317.434L446.505 323.044L449.162 326.292L453 333.378L452.114 336.626L450.638 338.398L449.457 344.008L450.048 345.78L449.162 350.209L445.62 348.437H442.963L437.059 345.485L433.811 341.351L434.402 340.17L432.335 338.693L433.516 337.512L433.221 335.445L430.269 332.788L429.088 328.949L426.431 327.473H423.184L413.442 328.063L401.633 323.93L402.519 321.863L401.928 320.386H404.29L405.471 318.91H402.224L399.862 320.091L399.272 318.91H394.843L392.186 320.386L389.825 323.044L388.054 325.997M316.908 253.92L316.612 257.109L315.727 259.176L316.612 264.904L317.793 265.111L313.365 269.983L311.003 269.333L310.118 270.19L310.413 274.884L312.775 276.951M272.803 269.156L274.752 272.05L275.608 276.951L273.925 279.963M388.054 325.997L385.101 321.863L383.33 322.453L381.854 318.319L381.559 312.709L380.673 311.233L381.264 310.052L377.426 308.28L372.703 308.871L370.341 311.528L369.16 311.233L366.798 309.461L362.665 305.623L361.189 302.965L360.599 302.079L359.123 301.784L357.647 302.67L352.333 300.898L353.809 297.355L350.562 294.107L348.495 293.516L347.019 291.745L343.772 293.812H336.982L335.801 296.764M388.054 325.997L385.692 330.721L384.216 335.445L380.968 340.17M312.775 276.951L316.908 279.314L317.203 281.174L316.317 284.008L318.679 285.219L319.269 287.02L320.45 286.134L323.402 287.315V290.268L322.221 292.926L325.174 294.993L329.897 294.697L331.963 295.878L335.801 296.764M312.775 276.951L311.003 278.457L306.87 280.14L304.804 279.491L303.328 281.38L300.671 281.646L298.605 283.359L295.062 282.68L292.996 281.174L290.043 280.347L283.785 278.073L279.829 278.28L278.707 280.524L279.829 283.536H277.202L273.925 279.963M335.801 296.764L336.687 298.831L335.506 302.374L332.849 304.737L329.011 305.032L329.307 307.985L328.421 309.166L330.192 313.595L332.554 315.957L334.62 316.843L333.144 319.5L336.096 321.567L336.982 325.111L339.344 328.063L344.067 330.426L344.657 333.083L347.314 335.445V338.103L344.362 341.056V342.532L342.886 345.189V346.961M342.886 346.961L346.429 351.095L347.314 352.867M380.968 340.17L379.788 342.237L379.492 344.304L381.264 348.142L378.016 352.571L376.54 356.41V357.886L378.312 360.544L377.721 362.315L379.197 363.792L382.445 365.268L387.168 364.973L390.12 366.154L391.301 367.926L395.729 370.288L398.386 371.174L399.862 372.945L403.995 374.422L402.814 377.965L403.109 381.803L404.29 384.166L403.995 388.595L405.766 392.729L407.537 393.024L406.357 394.5L406.652 396.567L404.29 400.111L402.814 398.929L401.043 399.815L399.272 398.339L395.729 399.225L389.53 402.177L385.397 405.721L383.921 407.492L382.74 410.74L385.101 420.485L385.397 423.437L385.101 425.799L381.559 429.638L376.836 432.591L375.359 433.772L370.636 440.859L369.455 447.945L368.274 450.898L364.732 452.67L362.37 452.079L355.285 453.26L351.447 451.193L349.971 449.126L350.857 447.355L349.381 444.992L349.971 442.335L349.086 438.496L349.676 437.61L354.99 435.544L358.828 425.209L359.123 423.437L358.237 419.894L355.58 417.532L355.876 416.055L361.78 412.217L366.208 411.922L368.57 410.445L369.75 407.197L369.455 402.768L368.865 401.292L366.798 400.111L364.141 395.681L363.551 394.5L360.599 380.918L358.828 376.489L355.876 372.945L353.219 370.583L351.743 366.154L350.562 364.087L349.381 359.363L348.495 357.591L348.79 355.524L347.314 352.867M380.968 340.17L372.407 340.76L371.817 344.304L371.522 347.256L370.341 350.504L370.636 352.276L368.57 350.504H367.094L364.732 351.981L359.713 352.867L357.647 351.095L357.352 349.028L355.876 349.323L354.99 348.142L353.219 349.323L351.152 348.437L348.2 350.8L347.314 352.867M179.9 145.583L179.339 146.617L181.583 144.904L179.9 145.583ZM204.727 166.341L204.255 165.514L202.366 165.426L203.222 167.375L204.727 166.341ZM212.521 176.026L211.872 174.52L211.193 176.026L212.049 176.499L212.521 176.026ZM118.408 206.322L117.374 208.211L115.869 207.178L117.374 204.816L118.408 206.322ZM139.929 217.512L139.545 219.402L138.423 220.052L139.929 222.207H138.039L135.973 220.052L132.519 221.558H129.39L127.913 220.524L128.091 218.369L129.773 217.512L133.818 218.162L134.024 217.04L137.006 217.896L138.718 214.796L140.224 216.007L139.929 217.512ZM159.206 241.4L158.556 242.05L156.195 239.717L157.051 238.3L159.206 241.4ZM97.92 299.126L99.6027 299.422L99.7798 298.241L103.824 302.079V304.146L104.857 301.489L108.636 302.67L107.603 304.146L106.57 307.985L108.046 307.099L108.813 308.28L110.496 307.689L111.824 309.166L109.463 308.871L108.252 312.414L106.57 312.119L108.902 313.595L111.441 312.709L110.496 314.186L114.747 316.548L112.208 318.615L113.891 320.682L115.662 325.701L115.869 328.654L118.791 332.788L118.112 335.15L115.662 339.874L114.363 340.465L111.175 345.78V347.552L112.297 351.685L115.219 354.638L113.891 359.363L113.98 366.154L113.123 367.926L113.33 372.945L112.208 377.079V381.508L111.441 383.87L112.208 384.756L110.968 389.185L110.585 392.433L111.824 393.615L109.758 395.681L109.109 398.634L109.669 399.52L108.813 402.177L107.396 402.768H104.385L100.429 399.225L98.4809 398.044H94.7317L93.5509 399.815L92.37 399.225L88.6504 395.977L87.9714 396.863L90.156 398.339L87.7943 401.882V403.654L88.8275 406.311L87.7943 409.559L81.3587 415.17L79.4988 413.693L75.9563 412.512L73.0632 414.579L71.5577 413.988L71.8824 411.036H70.7015L69.8454 406.016L67.838 405.721L66.6276 403.654L65.4468 403.063L65.1221 400.701L63.9412 400.111L62.5832 397.453L64.7678 394.796L64.4431 392.138L62.7604 390.071L63.9412 388.3L63.7641 386.528L63.4393 385.347L66.3029 380.032L65.801 375.898L65.6239 370.583L68.517 373.831H69.6978L67.9856 372.059L69.5207 369.697V364.973L66.48 363.201L65.4468 364.973L63.9412 363.792L63.7641 359.953L64.2659 357.591L63.4393 356.705L66.3029 356.115L67.4837 353.457L66.6276 351.685L66.48 348.142L66.9819 345.78L66.48 343.122L63.587 341.351L63.7641 338.103L62.908 334.264L61.55 333.378L60.9005 329.835L59.1883 328.949L57.1514 330.13V328.063L55.6458 328.359L55.1439 330.426L54.2878 327.473L55.6458 326.587L56.5019 324.225L54.1107 322.158L57.1514 315.367V313.004L55.9705 312.414L56.8266 310.052L58.1846 310.937L58.0075 313.3L60.9005 316.252L68.8417 317.434L71.8824 316.252L73.4175 313.89L76.1334 312.709L78.1409 313.3L80.0007 311.823L82.5395 307.689L83.8975 307.099L87.2924 302.67L90.6873 302.079L93.2262 299.717L93.5509 296.764L95.9126 295.878L97.241 297.06L97.92 299.126ZM103.559 297.945L101.285 298.241L101.197 297.355L102.968 295.878L103.559 297.945ZM104.857 299.126L103.736 299.717L104.592 296.764L105.241 297.945L104.857 299.126ZM58.6864 306.508L58.5093 309.166L57.1514 308.871L57.8303 306.804L59.6902 305.032V303.556L61.55 302.67L61.7271 303.556V305.623L58.6864 306.508ZM275.991 317.729L273.453 318.91L271.947 318.024L272.213 315.662L276.375 316.843L275.991 317.729ZM60.0444 399.225V403.654H58.0075L56.8266 400.996L57.6827 399.815L60.0444 399.225ZM65.1221 410.445L64.0888 410.74L61.7271 405.721L62.229 403.063L65.4468 403.654L66.1258 406.016L65.1221 410.445ZM318.088 423.142L317.498 424.323L314.841 423.142L317.203 422.551L318.088 423.142ZM322.221 427.276L321.926 428.752L319.269 427.571L319.565 425.799L321.631 425.504L322.221 427.276ZM323.107 431.114L323.698 432.886L321.631 431.705V429.638L323.107 431.114ZM347.019 439.973L344.362 445.878L340.525 451.488L335.801 460.347L333.735 463.595L334.325 465.071L332.554 472.748L330.192 476.587L330.487 483.378L331.373 485.15L335.801 486.626L337.277 487.807L334.62 490.76L337.572 494.894L339.934 495.78V497.551L341.41 499.914L338.753 500.799V501.98L335.211 504.047L332.554 511.429L334.325 516.744L333.735 518.221H331.963L329.011 516.449L328.126 517.039L323.993 515.268L320.155 517.039L316.022 516.154L315.136 514.677L308.051 513.201L303.918 505.819L301.261 503.162L298.9 501.095L292.405 497.847L288.863 498.142L285.113 499.323L283.224 499.028L280.685 497.256L277.497 496.37L274.663 494.894L269.881 491.055L265.187 489.874L257.836 485.445L256.891 483.673L253.526 481.016L248.537 480.425L247.681 481.016L245.348 478.063L242.337 477.177L237.732 477.473L232.832 478.063L230.116 474.52L227.282 473.634L225.865 472.453L223.149 466.252L224.566 465.366L225.038 462.414L224.566 460.937L225.865 455.918L228.61 452.67L229.909 453.26L231.975 450.603L234.337 449.717L234.16 447.355L235.754 446.764L238.293 452.079L241.481 454.441L244.492 453.555L248.242 450.898L247.415 448.536L249.098 445.878L253.319 446.469L257.57 444.107L259.902 446.469L260.758 449.717L265.659 449.126L267.046 451.784L273.63 455.327L276.848 455.622L281.069 453.555L282.575 452.67L285.763 451.193L289.453 452.67L292.11 452.079L295.948 452.374L300.376 451.488L302.147 450.307H305.099L310.118 448.24L313.66 444.107L316.317 443.811L320.45 442.335L322.812 443.221L326.059 443.811L327.83 444.697L331.373 442.925L333.439 438.792L333.735 439.973L335.801 440.268L339.639 438.792L344.067 434.953H345.838L349.676 435.839L347.019 437.906V439.973ZM220.61 460.347L219.665 461.232L216.949 459.756H218.809L220.61 460.347ZM209.805 517.63L209.126 520.288L207.827 519.992L205.288 517.925L204.727 516.154H206.971L207.827 515.563L209.805 517.63ZM235.193 581.705L234.898 582L231.326 580.819H235.37L235.193 581.705Z" stroke="url(#paint0_linear_9_111)" stroke-width="3" stroke-linecap="round" stroke-linejoin="round"/>
<defs>
<linearGradient id="paint0_linear_9_111" x1="227" y1="-17.5" x2="227.5" y2="582" gradientUnits="userSpaceOnUse">
<stop stop-color="#ffffff" stop-opacity="1"/>
<stop offset="1" stop-color="#ffffff" stop-opacity="1"/>
</linearGradient>
</defs>
</svg>
