<svg width="21" height="23" viewBox="0 0 21 23" fill="none" xmlns="http://www.w3.org/2000/svg">
<path d="M20.9535 19.8L19.716 10.35C19.566 9.075 18.4785 8.1375 17.2035 8.1375H15.291C15.7785 7.275 16.116 6.4125 16.116 5.625C16.116 2.5125 13.6035 0 10.491 0C7.37848 0 4.86598 2.5125 4.86598 5.625C4.86598 6.4125 5.20348 7.275 5.69098 8.1375H3.77848C2.50348 8.1375 1.41598 9.075 1.26598 10.35L0.0284822 19.8375C-0.0840178 20.55 0.140982 21.3 0.628482 21.8625C1.11598 22.425 1.82848 22.725 2.54098 22.725H18.441C19.191 22.725 19.866 22.425 20.3535 21.8625C20.841 21.3 21.066 20.55 20.9535 19.8ZM10.491 1.725C12.666 1.725 14.4285 3.4875 14.4285 5.6625C14.4285 7.125 12.216 9.6 10.491 11.1375C8.80348 9.6 6.55348 7.125 6.55348 5.6625C6.55348 3.45 8.31598 1.725 10.491 1.725ZM3.81598 9.825H6.92848C8.20348 11.4 9.70348 12.6375 9.96598 12.8625C10.116 12.975 10.3035 13.05 10.491 13.05C10.6785 13.05 10.866 12.975 11.016 12.8625C11.316 12.6375 12.7785 11.3625 14.0535 9.825H17.166C17.616 9.825 17.9535 10.1625 18.0285 10.575L18.291 12.6H14.8785C14.616 12.6 14.391 12.7125 14.241 12.9L11.841 15.675H2.27848L2.95348 10.575C2.99098 10.1625 3.36598 9.825 3.81598 9.825ZM1.90348 20.7375C1.75348 20.55 1.67848 20.2875 1.67848 20.0625L2.05348 17.3625H12.2535C12.516 17.3625 12.741 17.25 12.891 17.0625L15.291 14.2875H18.5535L18.8535 16.6875L13.2285 21H2.54098C2.27848 21.0375 2.05348 20.925 1.90348 20.7375ZM19.0785 20.7375C18.9285 20.925 18.666 21.0375 18.441 21.0375H16.0035L19.116 18.6375L19.3035 20.0625C19.341 20.2875 19.266 20.55 19.0785 20.7375Z" fill="#9CA29D"/>
<path d="M13.0785 5.475C13.0785 4.05 11.916 2.8875 10.491 2.8875C9.06599 2.8875 7.90349 4.05 7.90349 5.475C7.90349 6.9 9.06599 8.0625 10.491 8.0625C11.916 8.0625 13.0785 6.9 13.0785 5.475ZM9.59099 5.475C9.59099 4.9875 10.0035 4.575 10.491 4.575C10.9785 4.575 11.391 4.9875 11.391 5.475C11.391 5.9625 10.9785 6.375 10.491 6.375C10.0035 6.375 9.59099 5.9625 9.59099 5.475Z" fill="#9CA29D"/>
</svg>
