<svg width="24" height="22" viewBox="0 0 24 22" fill="none" xmlns="http://www.w3.org/2000/svg">
<path d="M23.7373 20.4534L20.4878 17.283C22.1125 15.1178 21.9144 12.0633 19.8933 10.1301C19.8141 10.0527 19.7348 9.9754 19.6556 9.89807V7.73286C19.6556 6.92091 19.2197 6.14763 18.5064 5.72232L11.0959 1.35325C10.3033 0.889279 9.35225 0.889279 8.59931 1.35325L6.93493 2.31986C6.73679 1.00527 5.54794 0 4.16096 0H3.8043C2.25881 0 0.990704 1.23726 0.990704 2.74517V5.83831C0.396282 6.26362 0 6.99824 0 7.73286V15.3497C0 16.8576 1.2681 18.0949 2.8136 18.0949H6.8953C7.80675 18.0949 8.55968 17.3603 8.55968 16.471V12.4112H10.4618C9.86741 14.3058 10.3429 16.471 11.8488 17.9789C12.9584 19.0615 14.4247 19.6028 15.8513 19.6028C17.0401 19.6028 18.1893 19.2548 19.18 18.5589L22.4295 21.7293C22.5881 21.884 22.8258 22 23.0636 22C23.3014 22 23.5391 21.9227 23.6976 21.7293C24.0939 21.3427 24.0939 20.8014 23.7373 20.4534ZM3.8043 1.77856H4.16096C4.71575 1.77856 5.19129 2.24253 5.19129 2.78383V3.40246L2.77397 4.79438V2.78383C2.77397 2.20387 3.24951 1.77856 3.8043 1.77856ZM7.68786 10.6714C7.21233 10.6714 6.77641 11.058 6.77641 11.5606V16.3937H2.8136C2.25881 16.3937 1.78327 15.9297 1.78327 15.3884V7.73286C1.78327 7.50088 1.90215 7.30756 2.10029 7.19156L9.51076 2.8225C9.7089 2.7065 9.9863 2.7065 10.1844 2.8225L17.5553 7.23023C17.7534 7.34622 17.8723 7.53954 17.8723 7.77153V8.85413C17.2382 8.62214 16.5646 8.50615 15.8909 8.50615C14.385 8.50615 12.9584 9.08612 11.8884 10.1301C11.7299 10.2847 11.5714 10.478 11.4129 10.6714H7.68786ZM13.1565 16.7417C11.6111 15.2337 11.6111 12.8366 13.1565 11.3673C13.9095 10.6327 14.8606 10.246 15.9305 10.246C16.8023 10.246 17.5949 10.5167 18.2686 11.0193C18.2686 11.0193 18.2686 11.0193 18.3082 11.058C18.4271 11.174 18.546 11.2513 18.6649 11.3673C20.1707 12.8366 20.1707 15.2724 18.6649 16.7417C17.1194 18.2109 14.6624 18.2109 13.1565 16.7417Z" fill="#9CA29D"/>
</svg>
